# Blender v2.77 (sub 0) OBJ File: 'human_low_sitting.blend'
# www.blender.org
mtllib human_sitting_relaxed.mtl
o HumanLow_Cube
v 0.408036 1.883082 0.699426
v 0.364635 2.023551 0.757626
v 0.191305 2.023551 0.757626
v 0.147904 1.883082 0.699426
v 0.291747 1.006177 0.568413
v 0.260431 1.006177 0.773109
v 0.433853 1.006178 0.773109
v 0.402536 1.006178 0.568413
v 0.437113 0.804446 0.538468
v 0.257170 0.804446 0.575230
v 0.265159 0.804446 0.881030
v 0.461546 0.804446 0.828638
v 0.275757 0.886728 1.150362
v 0.433464 0.870522 1.123689
v 0.462757 0.800372 1.101717
v 0.231529 0.800372 1.136154
v 0.173918 1.971587 0.872638
v 0.382023 1.971587 0.872638
v 0.151989 1.694610 0.534444
v 0.435647 1.694610 0.534444
v 0.326456 2.148257 0.275700
v 0.326122 2.123966 -0.142467
v 0.385653 1.803721 -0.039576
v 0.268143 2.472907 0.224422
v 0.312022 2.459406 -0.080363
v 0.301430 2.996168 0.204669
v 0.333980 2.925643 -0.210572
v 0.258597 3.252548 0.109376
v 0.344695 3.233870 -0.222937
v 0.585840 2.576988 0.170183
v 0.616633 2.613485 0.349484
v 0.449044 2.505588 0.240523
v 0.464423 2.619639 0.423289
v 0.126405 3.323091 -0.057757
v 0.564989 2.457214 0.187849
v 0.382232 2.484712 0.289258
v 0.439524 2.259370 0.722109
v 0.356211 2.285598 0.761152
v 0.372620 2.196846 0.616868
v 0.474455 3.143997 0.057481
v 0.513731 2.983186 -0.152195
v 0.434626 2.113853 0.962122
v 0.318828 2.319338 0.846368
v 0.233233 2.190811 0.672779
v 0.221034 1.981928 0.752557
v 0.259740 2.175313 1.040721
v 0.132014 2.077532 0.763467
v 0.138738 3.419661 -0.066329
v 0.120726 3.403851 0.148916
v 0.175945 3.614605 0.135599
v 0.158222 3.846075 0.103793
v 0.175945 3.573571 -0.212682
v 0.158222 3.823584 -0.237611
v -0.000004 3.917989 -0.162429
v -0.000004 3.919601 0.075994
v -0.158221 3.823584 -0.237611
v -0.000004 3.816372 -0.319770
v -0.000004 3.514434 -0.329638
v -0.175944 3.573571 -0.212682
v -0.158221 3.846075 0.103793
v -0.175944 3.614605 0.135599
v -0.000004 3.818192 0.222650
v -0.000004 3.587101 0.272635
v -0.000004 3.393301 0.255797
v -0.120726 3.403851 0.148916
v -0.000004 3.369501 -0.222246
v -0.000004 3.344132 0.100647
v -0.138737 3.419661 -0.066329
v -0.064242 2.043824 0.646320
v -0.046930 2.190244 0.930936
v -0.163912 1.969169 0.687265
v -0.174205 2.168146 0.585051
v -0.157474 2.326497 0.754236
v -0.246079 2.161591 0.938593
v -0.513731 2.983185 -0.152195
v -0.474455 3.143996 0.057482
v -0.000004 3.246200 0.120103
v -0.000004 3.219312 -0.252318
v -0.321193 2.199395 0.588076
v -0.231927 2.294490 0.697404
v -0.326971 2.283669 0.699096
v -0.419743 2.453453 0.247445
v -0.629936 2.457585 0.231887
v -0.126405 3.323091 -0.057757
v -0.435987 2.619720 0.404533
v -0.449044 2.505587 0.240524
v -0.602003 2.627632 0.369974
v -0.585840 2.576987 0.170184
v -0.344695 3.233870 -0.222937
v -0.258596 3.252548 0.109376
v -0.000004 2.932808 0.257142
v -0.000004 3.009044 -0.337808
v -0.333980 2.925642 -0.210572
v -0.301429 2.996167 0.204670
v -0.000004 2.468856 0.293791
v -0.000004 2.448511 -0.165545
v -0.312022 2.459406 -0.080363
v -0.268143 2.472907 0.224422
v -0.385653 1.803721 -0.039576
v -0.000004 1.741958 -0.014645
v -0.000004 2.047828 0.157576
v -0.000004 2.071057 -0.259546
v -0.000004 2.084790 0.292686
v -0.326122 2.123966 -0.142467
v -0.326456 2.148257 0.275700
v -0.435646 1.694610 0.534444
v -0.151988 1.694610 0.534444
v -0.382022 1.971587 0.872638
v -0.173916 1.971587 0.872638
v -0.231525 0.800372 1.136154
v -0.462754 0.800372 1.101717
v -0.433461 0.870522 1.123689
v -0.275753 0.886727 1.150362
v -0.461543 0.804446 0.828638
v -0.265156 0.804446 0.881030
v -0.257168 0.804446 0.575229
v -0.437111 0.804446 0.538468
v -0.402534 1.006177 0.568413
v -0.433850 1.006177 0.773109
v -0.260429 1.006177 0.773109
v -0.291745 1.006177 0.568413
v -0.147903 1.883082 0.699426
v -0.191304 2.023551 0.757627
v -0.364634 2.023551 0.757627
v -0.408035 1.883082 0.699426
vt 0.613179 0.808695
vt 0.658517 0.839270
vt 0.597540 0.877172
vt 0.581840 0.863815
vt 0.506200 0.808695
vt 0.525104 0.907112
vt 0.528017 0.931853
vt 0.463139 0.838581
vt 0.533816 0.906528
vt 0.538916 0.922682
vt 0.657474 0.953750
vt 0.574525 0.914559
vt 0.548095 0.885568
vt 0.255475 0.218960
vt 0.252290 0.195005
vt 0.294968 0.185988
vt 0.295668 0.210467
vt 0.224645 0.009043
vt 0.259849 0.000268
vt 0.153121 0.008260
vt 0.177588 0.011003
vt 0.183976 0.152554
vt 0.133009 0.145171
vt 0.120337 0.212684
vt 0.191805 0.218121
vt 0.106939 0.000268
vt 0.056251 0.189807
vt 0.059796 0.214460
vt 0.279829 0.392432
vt 0.378823 0.422581
vt 0.300898 0.440545
vt 0.103261 0.383334
vt 0.097231 0.438130
vt 0.000268 0.426869
vt 0.173574 0.451381
vt 0.183317 0.403724
vt 0.102602 0.453518
vt 0.225706 0.451978
vt 0.206675 0.555981
vt 0.109806 0.554289
vt 0.329127 0.451917
vt 0.302467 0.566353
vt 0.000268 0.451917
vt 0.020304 0.564750
vt 0.114959 0.687259
vt 0.204443 0.708942
vt 0.161390 0.703725
vt 0.161865 0.704220
vt 0.162440 0.703837
vt 0.162218 0.703984
vt 0.161916 0.704004
vt 0.162320 0.704452
vt 0.893336 0.201965
vt 0.903752 0.069010
vt 0.925116 0.083867
vt 0.937306 0.213878
vt 0.803032 0.212340
vt 0.824413 0.081925
vt 0.859566 0.064604
vt 0.844587 0.188450
vt 0.758447 0.195968
vt 0.789426 0.074906
vt 0.155504 0.808156
vt 0.129086 0.758694
vt 0.181918 0.748581
vt 0.081736 0.802258
vt 0.240630 0.807589
vt 0.281008 0.756033
vt 0.028312 0.707959
vt 0.148325 0.725719
vt 0.172862 0.722418
vt 0.901621 0.050801
vt 0.937306 0.000268
vt 0.765528 0.006729
vt 0.849687 0.006424
vt 0.896055 0.025435
vt 0.868617 0.031814
vt 0.044099 0.808692
vt 0.095273 0.837283
vt 0.095263 0.862584
vt 0.043754 0.833988
vt 0.154542 0.808692
vt 0.149257 0.847994
vt 0.043945 0.866429
vt 0.009245 0.855641
vt 0.050976 0.909052
vt 0.000268 0.903686
vt 0.122198 0.903837
vt 0.170428 0.889876
vt 0.120380 0.953138
vt 0.059532 0.953597
vt 0.015305 0.962568
vt 0.053228 0.992078
vt 0.160542 0.967132
vt 0.115200 0.999732
vt 0.827284 0.473349
vt 0.865599 0.520520
vt 0.832033 0.550683
vt 0.801368 0.517261
vt 0.714767 0.601740
vt 0.754725 0.571338
vt 0.795394 0.599266
vt 0.782690 0.639853
vt 0.866687 0.568560
vt 0.835892 0.622880
vt 0.737659 0.525122
vt 0.693760 0.559775
vt 0.771335 0.486208
vt 0.783358 0.451917
vt 0.745402 0.466719
vt 0.454345 0.708943
vt 0.377780 0.756034
vt 0.356323 0.566353
vt 0.452113 0.555982
vt 0.548982 0.554290
vt 0.638482 0.564750
vt 0.630475 0.707959
vt 0.543829 0.687261
vt 0.717338 0.510047
vt 0.659054 0.540592
vt 0.724886 0.451917
vt 0.502705 0.218960
vt 0.566374 0.218121
vt 0.574863 0.403723
vt 0.478351 0.392431
vt 0.462512 0.210467
vt 0.379359 0.422582
vt 0.637843 0.212684
vt 0.654917 0.383334
vt 0.698384 0.214460
vt 0.757910 0.426870
vt 0.771947 0.722047
vt 0.736794 0.704726
vt 0.727743 0.671936
vt 0.746673 0.646546
vt 0.694739 0.690923
vt 0.700305 0.665557
vt 0.659054 0.640390
vt 0.692608 0.709132
vt 0.830832 0.646850
vt 0.806934 0.715027
vt 0.671244 0.723989
vt 0.497398 0.703726
vt 0.496348 0.703838
vt 0.485926 0.722420
vt 0.510463 0.725720
vt 0.496468 0.704454
vt 0.496923 0.704221
vt 0.476870 0.748583
vt 0.529703 0.758696
vt 0.577051 0.802259
vt 0.418159 0.807590
vt 0.503284 0.808158
vt 0.751773 0.828571
vt 0.703024 0.842087
vt 0.837913 0.836089
vt 0.793328 0.852461
vt 0.659054 0.853999
vt 0.496872 0.704005
vt 0.496571 0.703985
vt 0.658517 0.451917
vt 0.556186 0.453519
vt 0.433082 0.451979
vt 0.329664 0.451917
vt 0.584605 0.451380
vt 0.660947 0.438130
vt 0.457282 0.440544
vt 0.505890 0.195005
vt 0.574204 0.152554
vt 0.625171 0.145171
vt 0.701929 0.189807
vt 0.580592 0.011003
vt 0.533534 0.009043
vt 0.651241 0.000268
vt 0.605058 0.008260
vt 0.463212 0.185988
vt 0.498331 0.000268
vt 0.842654 0.306921
vt 0.844949 0.327406
vt 0.808047 0.343221
vt 0.798788 0.305099
vt 0.782686 0.343340
vt 0.772144 0.330080
vt 0.812674 0.214414
vt 0.908171 0.277557
vt 0.908171 0.332241
vt 0.848358 0.420936
vt 0.777330 0.350237
vt 0.758447 0.333988
vt 0.799504 0.439928
vt 0.224046 0.808692
vt 0.225169 0.856359
vt 0.170965 0.856359
vt 0.176362 0.815137
vn -0.125200 0.056800 -0.990500
vn 0.072600 0.941700 0.328600
vn 0.141200 -0.235800 0.961500
vn 0.976600 0.210300 0.045800
vn -0.990800 0.135100 -0.002300
vn -0.997100 0.060800 -0.045600
vn 0.983300 0.144700 -0.110800
vn -0.003200 -0.999900 -0.015600
vn 0.000000 -1.000000 0.000000
vn 0.000000 0.911300 0.411700
vn 0.000000 -0.102600 0.994700
vn -0.000000 -0.049300 -0.998800
vn -0.000000 0.658700 -0.752400
vn 0.999300 0.009900 0.036000
vn -0.989100 -0.137400 0.053000
vn 0.954300 0.298700 -0.009300
vn 0.990500 0.027000 0.135000
vn -0.954300 0.298700 -0.009300
vn -0.927700 -0.257000 0.270700
vn 0.197300 -0.945600 0.258700
vn 0.983700 0.179300 -0.011200
vn 0.185600 -0.450700 -0.873200
vn 0.992700 0.108000 0.054100
vn 0.276100 0.210800 -0.937700
vn 0.134200 0.081000 0.987600
vn -0.957100 -0.283600 0.060000
vn -0.455100 -0.132000 -0.880600
vn 0.973600 -0.188500 -0.128800
vn -0.533200 0.737200 -0.415100
vn 0.418900 0.562400 0.712900
vn -0.351200 -0.698200 -0.623800
vn 0.868400 -0.495500 0.020500
vn -0.815500 0.548000 0.186300
vn 0.413900 0.908600 0.056200
vn -0.006300 0.919500 0.393100
vn 0.003000 0.881500 -0.472200
vn 0.235500 0.130900 -0.963000
vn 0.056800 0.380600 0.923000
vn 0.391500 0.377300 0.839200
vn 0.981400 0.179000 -0.069400
vn 0.322700 -0.049100 -0.945200
vn 0.297600 0.542400 0.785700
vn 0.231400 -0.636400 -0.735800
vn 0.664200 0.676200 0.318800
vn 0.739000 -0.612700 -0.280000
vn -0.307200 0.831000 -0.463800
vn -0.274500 -0.781000 0.561000
vn 0.492300 0.621000 0.609900
vn -0.802100 0.591400 0.082700
vn -0.377200 -0.311100 -0.872300
vn 0.971000 0.235800 -0.039400
vn 0.099600 -0.985400 0.137900
vn -0.234700 0.955000 0.181300
vn -0.966800 -0.036500 0.252800
vn 0.783600 0.039700 0.620000
vn 0.794600 0.013200 -0.607000
vn 0.993200 -0.038800 0.110000
vn 0.203400 0.049000 0.977900
vn 0.271900 -0.277300 -0.921500
vn 0.408200 -0.907200 0.101600
vn 0.639400 -0.093900 0.763100
vn 0.972700 -0.228400 0.041300
vn 0.651500 -0.536600 -0.536400
vn 0.997300 0.072600 -0.006700
vn 0.271700 0.791600 0.547400
vn 0.236500 0.816200 -0.527100
vn 0.464100 0.885000 -0.036800
vn 0.512900 -0.007000 -0.858400
vn 0.582600 0.163100 0.796200
vn -0.582700 0.163100 0.796200
vn -0.512900 -0.007000 -0.858400
vn -0.464200 0.885000 -0.036800
vn -0.236500 0.816200 -0.527100
vn -0.271700 0.791600 0.547400
vn -0.997300 0.072600 -0.006700
vn -0.651500 -0.536500 -0.536400
vn -0.972700 -0.228400 0.041300
vn -0.639500 -0.093900 0.763100
vn -0.408200 -0.907200 0.101600
vn -0.271900 -0.277300 -0.921500
vn -0.203400 0.049000 0.977900
vn -0.993200 -0.038800 0.110000
vn -0.794600 0.013200 -0.606900
vn -0.783600 0.039700 0.620000
vn 0.966800 -0.036500 0.252800
vn 0.234800 0.955000 0.181300
vn -0.099600 -0.985400 0.137900
vn -0.971000 0.235800 -0.039400
vn -0.077100 -0.458700 -0.885200
vn 0.847800 0.408700 -0.338100
vn -0.085100 0.762600 0.641300
vn 0.352800 -0.771000 0.530200
vn 0.216100 0.702100 -0.678500
vn -0.877100 -0.460000 0.138300
vn -0.351200 0.828600 0.436000
vn -0.231400 -0.636400 -0.735800
vn -0.197800 0.530900 0.824000
vn -0.322700 -0.049100 -0.945200
vn -0.981900 0.184900 -0.040100
vn -0.391500 0.377300 0.839200
vn -0.056800 0.380600 0.923000
vn -0.235500 0.130900 -0.963000
vn -0.003000 0.881500 -0.472200
vn 0.006300 0.919500 0.393100
vn -0.413900 0.908600 0.056200
vn 0.879600 0.422900 -0.217800
vn -0.842100 -0.338200 0.420200
vn -0.059500 -0.808400 -0.585700
vn -0.103300 0.636500 0.764400
vn 0.833200 0.420600 -0.359000
vn -0.950200 0.275100 -0.146600
vn 0.144000 -0.378200 -0.914400
vn 0.957800 -0.287000 0.016100
vn -0.134200 0.081000 0.987600
vn -0.276100 0.210800 -0.937700
vn -0.992700 0.108000 0.054100
vn -0.185700 -0.450700 -0.873200
vn -0.983700 0.179300 -0.011200
vn -0.197300 -0.945600 0.258700
vn 0.927700 -0.257000 0.270700
vn -0.990500 0.026900 0.135000
vn 0.989100 -0.137400 0.053000
vn -0.999300 0.009900 0.036000
vn 0.003200 -0.999900 -0.015600
vn -0.983300 0.144700 -0.110800
vn 0.997100 0.060800 -0.045600
vn 0.990800 0.135100 -0.002300
vn -0.976600 0.210300 0.045800
vn -0.141200 -0.235800 0.961500
vn -0.072600 0.941700 0.328600
vn 0.125200 0.056800 -0.990500
vn 0.461500 0.884400 0.069900
vn 0.836000 0.499700 -0.226700
vn -0.836000 0.499700 -0.226700
vn -0.461500 0.884400 0.069900
vn -0.120600 -0.652500 0.748200
usemtl None
s off
f 5/1/1 8/2/1 9/3/1 10/4/1
f 6/5/2 13/6/2 14/7/2 7/8/2
f 13/6/3 16/9/3 15/10/3 14/7/3
f 7/11/4 14/7/4 15/10/4 12/12/4
f 6/5/5 11/13/5 16/9/5 13/6/5
f 5/1/6 10/4/6 11/13/6 6/5/6
f 7/11/7 12/12/7 9/3/7 8/2/7
f 11/13/8 12/12/8 15/10/8 16/9/8
f 9/3/9 12/12/9 11/13/9 10/4/9
f 3/14/10 17/15/10 18/16/10 2/17/10
f 17/15/11 6/18/11 7/19/11 18/16/11
f 8/20/12 5/21/12 19/22/12 20/23/12
f 1/24/13 20/23/13 19/22/13 4/25/13
f 7/26/14 8/20/14 20/23/14 18/27/14
f 5/21/15 6/18/15 17/15/15 19/22/15
f 1/24/16 2/28/16 18/27/16
f 1/24/17 18/27/17 20/23/17
f 3/14/18 4/25/18 17/15/18
f 4/25/19 19/22/19 17/15/19
f 101/29/20 21/30/20 103/31/20
f 23/32/21 22/33/21 21/34/21
f 102/35/22 22/33/22 23/32/22 100/36/22
f 21/37/23 22/38/23 25/39/23 24/40/23
f 22/38/24 102/41/24 96/42/24 25/39/24
f 103/43/25 21/37/25 24/40/25 95/44/25
f 26/45/26 27/46/26 32/47/26 33/48/26
f 30/49/27 35/50/27 36/51/27 32/47/27
f 30/49/28 31/52/28 35/50/28
f 32/47/29 36/51/29 33/48/29
f 33/53/30 38/54/30 37/55/30 31/56/30
f 35/57/31 39/58/31 44/59/31 36/60/31
f 31/61/32 37/62/32 39/58/32 35/57/32
f 36/60/33 44/59/33 38/54/33 33/53/33
f 34/63/34 28/64/34 29/65/34
f 28/64/35 34/63/35 77/66/35
f 29/65/36 78/67/36 34/63/36
f 27/46/37 92/68/37 78/67/37 29/65/37
f 26/45/38 28/64/38 77/66/38 91/69/38
f 40/70/39 28/64/39 26/45/39
f 40/70/40 31/52/40 30/49/40 41/71/40
f 29/65/41 41/71/41 27/46/41
f 26/45/42 33/48/42 31/52/42 40/70/42
f 27/46/43 41/71/43 30/49/43 32/47/43
f 37/55/44 38/54/44 43/72/44 42/73/44
f 39/58/45 37/62/45 42/74/45 45/75/45
f 38/54/46 44/59/46 43/72/46
f 45/75/47 42/73/47 46/76/47 47/77/47
f 42/73/48 43/72/48 46/76/48
f 43/72/49 44/59/49 47/77/49 46/76/49
f 39/58/50 45/75/50 47/77/50 44/59/50
f 1/24/51 23/32/51 21/34/51 2/28/51
f 1/24/52 4/25/52 100/36/52 23/32/52
f 2/17/53 21/30/53 101/29/53 3/14/53
f 3/14/54 101/29/54 100/36/54 4/25/54
f 77/78/55 34/79/55 48/80/55 67/81/55
f 34/79/56 78/82/56 66/83/56 48/80/56
f 24/40/57 25/39/57 27/46/57 26/45/57
f 24/40/58 26/45/58 91/69/58 95/44/58
f 27/46/59 25/39/59 96/42/59 92/68/59
f 67/81/60 48/80/60 49/84/60 64/85/60
f 49/84/61 50/86/61 63/87/61 64/85/61
f 48/80/62 52/88/62 50/86/62 49/84/62
f 48/80/63 66/83/63 58/89/63 52/88/63
f 50/86/64 52/88/64 53/90/64 51/91/64
f 62/92/65 51/91/65 55/93/65
f 57/94/66 54/95/66 53/90/66
f 51/91/67 53/90/67 54/95/67 55/93/67
f 58/89/68 57/94/68 53/90/68 52/88/68
f 63/87/69 50/86/69 51/91/69 62/92/69
f 63/96/70 62/97/70 60/98/70 61/99/70
f 58/100/71 59/101/71 56/102/71 57/103/71
f 60/98/72 55/104/72 54/105/72 56/102/72
f 57/103/73 56/102/73 54/105/73
f 62/97/74 55/104/74 60/98/74
f 61/99/75 60/98/75 56/102/75 59/101/75
f 68/106/76 59/101/76 58/100/76 66/107/76
f 68/106/77 65/108/77 61/99/77 59/101/77
f 65/108/78 64/109/78 63/96/78 61/99/78
f 67/110/79 64/109/79 65/108/79 68/106/79
f 93/111/80 92/112/80 96/113/80 97/114/80
f 98/115/81 95/116/81 91/117/81 94/118/81
f 98/115/82 94/118/82 93/111/82 97/114/82
f 84/119/83 68/106/83 66/107/83 78/120/83
f 77/121/84 67/110/84 68/106/84 84/119/84
f 123/122/85 122/123/85 100/124/85 101/125/85
f 124/126/86 123/122/86 101/125/86 105/127/86
f 125/128/87 99/129/87 100/124/87 122/123/87
f 125/128/88 124/130/88 105/131/88 99/129/88
f 79/132/89 72/133/89 69/134/89 71/135/89
f 73/136/90 70/137/90 69/134/90 72/133/90
f 74/138/91 70/137/91 73/136/91
f 71/135/92 69/134/92 70/137/92 74/138/92
f 80/139/93 73/136/93 72/133/93
f 79/132/94 71/135/94 74/140/94 81/141/94
f 81/142/95 74/138/95 73/136/95 80/139/95
f 93/111/96 86/143/96 88/144/96 75/145/96
f 94/118/97 76/146/97 87/147/97 85/148/97
f 89/149/98 93/111/98 75/145/98
f 76/146/99 75/145/99 88/144/99 87/147/99
f 76/146/100 94/118/100 90/150/100
f 94/118/101 91/117/101 77/151/101 90/150/101
f 93/111/102 89/149/102 78/152/102 92/112/102
f 89/149/103 84/153/103 78/152/103
f 90/150/104 77/151/104 84/153/104
f 84/153/105 89/149/105 90/150/105
f 82/154/106 85/155/106 80/139/106 72/133/106
f 87/156/107 83/157/107 79/132/107 81/141/107
f 83/157/108 82/154/108 72/133/108 79/132/108
f 85/155/109 87/158/109 81/142/109 80/139/109
f 86/143/110 85/148/110 82/159/110
f 88/144/111 83/160/111 87/147/111
f 88/144/112 86/143/112 82/159/112 83/160/112
f 94/118/113 85/148/113 86/143/113 93/111/113
f 103/161/114 95/116/114 98/115/114 105/162/114
f 104/163/115 97/114/115 96/113/115 102/164/115
f 105/162/116 98/115/116 97/114/116 104/163/116
f 102/165/117 100/124/117 99/129/117 104/166/117
f 99/129/118 105/131/118 104/166/118
f 101/125/119 103/167/119 105/127/119
f 122/123/120 109/168/120 107/169/120
f 123/122/16 109/168/16 122/123/16
f 125/128/121 106/170/121 108/171/121
f 125/128/18 108/171/18 124/130/18
f 121/172/122 107/169/122 109/168/122 120/173/122
f 119/174/123 108/171/123 106/170/123 118/175/123
f 125/128/13 122/123/13 107/169/13 106/170/13
f 118/175/12 106/170/12 107/169/12 121/172/12
f 109/168/11 108/176/11 119/177/11 120/173/11
f 123/122/10 124/126/10 108/176/10 109/168/10
f 117/178/9 116/179/9 115/180/9 114/181/9
f 115/180/124 110/182/124 111/183/124 114/181/124
f 119/184/125 118/185/125 117/178/125 114/181/125
f 121/186/126 120/187/126 115/180/126 116/179/126
f 120/187/127 113/188/127 110/182/127 115/180/127
f 119/184/128 114/181/128 111/183/128 112/189/128
f 113/188/129 112/189/129 111/183/129 110/182/129
f 120/187/130 119/190/130 112/189/130 113/188/130
f 121/186/131 116/179/131 117/178/131 118/185/131
f 28/64/132 40/70/132 29/65/132
f 29/65/133 40/70/133 41/71/133
f 75/145/134 76/146/134 89/149/134
f 76/146/135 90/150/135 89/149/135
f 83/191/136 82/192/136 85/193/136 87/194/136
